# xmcd
#
# Track frame offsets:
#	150
#	15697
#	31095
#	46880
#	72579
#	90650
#	108710
#	127648
#	143250
#	158813
#
# Disc length: 2263 seconds
#
# Revision: 1
# Processed by: cddbd v1.5PL3 Copyright (c) Steve Scherf et al.
# Submitted via: audiograbber 1.82.01
#
DISCID=7508d50a
DTITLE=The Toughtimes - You Play Too Much!
DYEAR=2004
DGENRE=Blues
TTITLE0=take a little walk with me 
TTITLE1=everything gonna be alright
TTITLE2=rambling woman
TTITLE3=the sky is crying
TTITLE4=look on yonder wall
TTITLE5=catfish blues
TTITLE6=blue guitar
TTITLE7=framed
TTITLE8=just got to know
TTITLE9=black cat bone
EXTD=Anthony Estrada (Guitar, Vocals]\nNick Santos-Carter (Bass]\nChazz Bessett
EXTD=e (Drums]\n\n
EXTT0=Originally performed by Robert Lockwood, Jr.
EXTT1=Originally performed by Magic Sam
EXTT2=Originally performed by Johnny "Big Moose" Walker
EXTT3=Originally performed by Elmore James
EXTT4=Traditional, arranged by Anthony Estrada
EXTT5=Traditional, arranged by McKinley Morganfield aka Muddy Waters
EXTT6=Originally performed by Earl Hooker
EXTT7=Originally performed by Ritchie Valens, arr. Leiber/Stoller
EXTT8=Originally performed by Jimmy McCracklin
EXTT9=Originally performed by Harding "Hop" Wilson
PLAYORDER=
